<?xml version="1.0" encoding="UTF-8"?>
<svg id="Vrstva_1" xmlns="http://www.w3.org/2000/svg" version="1.1" xmlns:xlink="http://www.w3.org/1999/xlink" viewBox="0 0 1920 1181">
  <!-- Generator: Adobe Illustrator 29.1.0, SVG Export Plug-In . SVG Version: 2.1.0 Build 142)  -->
  <defs>
    <style>
      .st0, .st1 {
        fill: none;
      }

      .st1 {
        stroke: #000;
        stroke-miterlimit: 10;
        stroke-width: 2.3px;
      }

      .st2 {
        clip-path: url(#clippath);
      }
    </style>
    <clipPath id="clippath">
      <rect class="st0" x="0" y="-124" width="1920.4" height="1438.9"/>
    </clipPath>
  </defs>
  <g class="st2">
    <g>
      <path class="st1" d="M-1004.6,798.1c9.8,23.2,307.5,523.8,607,310.6C-98.1,895.6-186.2-31.7,212.2,34.9c398.4,66.6,479.5,889.6,804.1,1028.7,342.3,146.7,668.5-73,899,33.9,248.3,115.1,435.1,423.6,435.1,423.6"/>
      <path class="st1" d="M-1003.7,811.6c9.6,22.5,303.3,502.4,602.3,292.1C-200.4,962.3-168,508.2-47.3,249.6,11.4,124,89.4,42.3,217.8,63.1c395.7,63.5,471.7,846.5,803.8,991.5,344.2,149.4,669.1-66.5,898.3,32.7,247.2,106.6,431.3,398.2,432.1,396.8"/>
      <path class="st1" d="M-1002.8,825.1c9.3,21.9,299.1,481,597.7,273.6C-204.7,959.3-165.9,518.2-41.5,270.7,19,150.6,96.7,71.7,223.3,91.4c392.7,61.2,463.5,804,803.5,954.3,345.8,152.9,669.7-60.1,897.6,31.5,246.1,98.1,427.5,372.9,429.1,370.1"/>
      <path class="st1" d="M-1001.9,838.6c9,21.2,294.9,459.5,593,255.1C-209.1,956.3-163.9,528.3-35.6,291.9,26.6,177.1,104.1,101,228.8,119.7c389.9,58.5,455.5,761.2,803.2,917.1,347.6,155.9,670.2-53.6,896.9,30.2,245,89.6,423.7,347.5,426.1,343.3"/>
      <path class="st1" d="M-1001,852.1c8.7,20.6,290.6,438.1,588.3,236.5C-213.5,953.4-161.9,538.4-29.8,313,34.2,203.7,111.4,130.3,234.3,148c387,55.8,447.5,718.3,802.9,880,349.4,158.9,670.6-46.6,896.2,29,243.6,81.7,419.8,322.1,423.1,316.5"/>
      <path class="st1" d="M-1000.1,865.6c8.5,19.9,286.4,416.7,583.7,218C-217.8,950.4-159.9,548.5-24,334.1,41.8,230.3,118.8,159.5,239.9,176.3c384.2,53.1,439.5,675.4,802.6,842.8,351.2,161.9,671.2-40,895.5,27.8,242.5,73.3,416,296.7,420.1,289.8"/>
      <path class="st1" d="M-999.2,879.1c8.2,19.3,282.2,395.2,579,199.5C-222.2,947.4-158,558.8-18.2,355.3,49.3,256.9,126.2,188.8,245.4,204.6c381.4,50.3,431.5,632.4,802.3,805.6,353,164.8,671.8-33.4,894.8,26.6,241.4,64.9,412.2,271.3,417.1,263"/>
      <path class="st1" d="M-998.3,892.5c7.9,18.7,278,373.8,574.3,181C-226.5,944.5-156.2,569-12.4,376.4c69.3-92.8,146-158.3,263.3-143.6,378.5,47.6,423.6,589.5,802,768.4,354.8,167.7,672.3-26.8,894.1,25.4,240.3,56.6,408.4,246,414.1,236.2"/>
      <path class="st1" d="M-997.4,906c7.6,18,273.8,352.4,569.6,162.4C-230.9,941.5-154.4,579.3-6.6,397.6c71-87.3,147.6-150.2,263.1-136.4,375.7,44.8,415.6,546.5,801.7,731.2,356.7,170.6,672.9-20.3,893.4,24.1,239.2,48.2,404.6,220.6,411.1,209.5"/>
      <path class="st1" d="M-996.5,919.5c7.4,17.4,269.5,330.9,565,143.9C-235.2,938.5-152.7,589.7-.8,418.7c72.6-81.8,149.1-142.1,262.8-129.3,372.9,42,407.7,503.5,801.5,694,358.6,173.5,673.5-13.7,892.7,22.9,238.1,39.8,400.8,195.2,408.1,182.7"/>
      <path class="st1" d="M-995.6,933c7.1,16.7,265.3,309.5,560.3,125.4C-239.6,935.5-151.1,600,5,439.8c74.3-76.2,150.7-134,262.5-122.1,370.1,39.2,399.7,460.5,801.2,656.8,360.4,176.3,674.1-7.2,892,21.7,237,31.4,396.9,169.8,405.1,155.9"/>
      <path class="st1" d="M-994.7,946.5c6.8,16.1,261.1,288.1,555.6,106.9C-244,932.6-149.5,610.4,10.8,461c75.8-70.7,152.3-125.9,262.2-115,367.3,36.4,391.8,417.4,800.9,619.6,362.3,179.1,674.8-.6,891.3,20.5,236,23,393.1,144.5,402,129.1"/>
      <path class="st1" d="M-993.8,960c6.6,15.4,256.9,266.6,551,88.3C-248.3,929.6-148.1,620.8,16.6,482.1c77.3-65.1,153.9-117.8,262-107.8,364.5,33.5,383.9,374.3,800.6,582.4,364.2,181.9,675.4,5.9,890.6,19.3,234.9,14.5,389.3,119.1,399,102.4"/>
      <path class="st1" d="M-992.9,973.4c6.3,14.8,252.6,245.2,546.3,69.8C-252.7,926.6-146.8,631.2,22.4,503.2c78.8-59.6,155.4-109.7,261.7-100.7,361.7,30.6,376,331.2,800.3,545.3,366.1,184.6,676,12.4,889.9,18,233.8,6.1,385.5,93.7,396,75.6"/>
      <path class="st1" d="M-992,986.9c6,14.2,248.4,223.8,541.6,51.3,193.3-114.6,304.8-396.7,478.6-513.9,80.2-54.1,157-101.6,261.4-93.6,359,27.8,368.1,288.1,800,508.1,368,187.4,676.7,18.9,889.2,16.8,232.8-2.3,381.7,68.3,393,48.8"/>
      <path class="st1" d="M-991.1,1000.4c5.7,13.5,244.2,202.3,537,32.8,192.7-112.5,309.6-381.3,488.2-487.7,81.6-48.6,158.6-93.6,261.1-86.4,356.2,24.8,360.2,245,799.7,470.9,369.9,190.1,677.3,25.4,888.5,15.6s377.9,43,390,22.1"/>
      <path class="st1" d="M-990.2,1013.9c5.5,12.9,240,180.9,532.3,14.2,192.1-110.4,314.4-366,497.8-461.5,82.9-43.2,160.2-85.5,260.8-79.3,353.4,21.9,352.3,201.8,799.4,433.7,371.9,192.8,677.9,31.9,887.8,14.4,230.7-19.3,374,17.6,387-4.7"/>
      <path class="st1" d="M-989.3,1027.4c5.2,12.2,235.8,159.5,527.6-4.3,191.6-108.4,319.1-350.9,507.3-435.3,84.1-37.7,161.8-77.4,260.6-72.1,350.7,18.9,344.4,158.7,799.1,396.5,373.8,195.5,678.6,38.4,887.1,13.1,229.7-27.8,370.2-7.8,384-31.5"/>
      <path class="st1" d="M-988.4,1040.9c4.9,11.6,231.5,138,522.9-22.8,191-106.3,323.6-335.8,516.9-409.2,85.4-32.4,163.4-69.4,260.3-65,347.9,15.9,336.6,115.5,798.8,359.3,375.7,198.2,679.2,44.8,886.4,11.9,228.6-36.3,366.4-33.2,381-58.2"/>
      <path class="st1" d="M-987.5,1054.4c4.6,10.9,227.3,116.6,518.3-41.3,190.4-104.2,328.2-320.9,526.5-383s165-61.4,260-57.8c345.2,12.9,328.7,72.2,798.6,322.1,377.7,200.9,679.9,51.3,885.7,10.7,227.6-44.8,362.6-58.6,378-85"/>
      <path class="st1" d="M-986.6,1067.8c4.4,10.3,223.1,95.2,513.6-59.9,189.8-102.2,332.7-306.1,536.1-356.8,87.8-21.9,166.5-53.3,259.7-50.7,342.4,9.8,320.9,29,798.3,284.9,379.6,203.5,680.5,57.7,885,9.5,226.6-53.4,358.8-83.9,375-111.8"/>
      <path class="st1" d="M-985.7,1081.3c4.1,9.7,218.9,73.7,508.9-78.4,189.2-100.1,337.2-291.5,545.6-330.6,89-16.7,168.1-45.3,259.5-43.5,339.7,6.7,313.1-14.2,798,247.7,381.6,206.2,681.1,64.1,884.3,8.3,225.5-62,355-109.3,372-138.6"/>
      <path class="st1" d="M-984.8,1094.8c3.8,9,214.7,52.3,504.3-96.9,188.6-98,341.7-277,555.2-304.5,90.1-11.6,169.7-34.3,259.2-36.4,336.8-7.9,305.2-57.5,797.7,210.5,383.6,208.8,681.8,70.5,883.6,7,224.4-70.5,351.1-134.7,369-165.3"/>
      <path class="st1" d="M-983.9,1108.3c3.6,8.4,210.4,30.9,499.6-115.4,188-95.9,346.2-262.6,564.8-278.3,91.4-6.5,171.4-26.3,258.9-29.2,334-11,297.4-100.8,797.4,173.4,385.5,211.4,682.4,76.9,882.9,5.8,223.4-79.1,347.3-160.1,366-192.1"/>
      <path class="st1" d="M-983,1121.8c3.3,7.7,206.2,9.4,494.9-134,187.4-93.9,352-229.3,574.4-252.1,92.1-9.5,173-18.5,258.6-22.1,331.2-14,289.6-144.1,797.1,136.2,387.5,214,683,83.2,882.2,4.6,222.3-87.7,343.5-185.4,363-218.9"/>
      <path class="st1" d="M-982.1,1135.3c3,7.1,202-12,490.3-152.5,186.8-91.8,355.5-216.3,583.9-226,93.9-4,174.5-13.4,258.3-14.9,328.7-6,281.9-187.4,796.8,99,389.5,216.6,683.6,89.6,881.5,3.4,221.2-96.3,339.7-210.8,360-245.6"/>
      <path class="st1" d="M-981.2,1148.8c2.7,6.4,197.8-33.4,485.6-171,186.3-89.7,360.3-220.3,593.5-199.8,95.2,8.4,176.1-5.4,258.1-7.8,325.9-9.3,274.1-230.7,796.5,61.8,391.5,219.2,684.2,95.9,880.8,2.2,220.1-105,335.9-236.2,357-272.4"/>
      <path class="st1" d="M-980.3,1162.2c2.5,5.8,193.5-54.9,480.9-189.5,185.7-87.7,365.1-206.3,603.1-173.6,96.5,13.3,177.7,2.5,257.8-.6,323.2-12.7,266.3-274.1,796.2,24.6,393.5,221.8,684.7,102.3,880.1.9,219-113.6,332-261.6,354-299.2"/>
      <path class="st1" d="M-979.4,1175.7c2.2,5.1,189.3-76.3,476.3-208.1,185.1-85.6,370.1-192.4,612.7-147.4,97.9,18.2,179.3,10.4,257.5,6.5,320.4-16.1,258.6-317.4,795.9-12.6,395.5,224.4,685.3,108.6,879.4-.3,217.9-122.2,328.2-286.9,351-325.9"/>
      <path class="st1" d="M-978.5,1189.2c1.9,4.5,185.1-97.7,471.6-226.6,184.5-83.5,375.1-178.6,622.3-121.3,99.4,23,180.9,18.4,257.2,13.7,317.7-19.6,250.8-360.8,795.7-49.8,397.5,226.9,685.9,115,878.7-1.5,216.7-130.9,324.4-312.3,347.9-352.7"/>
      <path class="st1" d="M-977.6,1202.7c1.6,3.9,180.9-119.2,466.9-245.1,183.9-81.5,380.2-164.7,631.8-95.1,100.8,27.9,182.4,26.3,257,20.8,314.9-23.1,243.1-404.2,795.4-87,399.6,229.5,686.4,121.3,878-2.7,215.6-139.5,320.6-337.7,344.9-379.5"/>
      <path class="st1" d="M-976.7,1216.2c1.4,3.2,176.7-140.6,462.2-263.6,183.3-79.4,385.4-150.9,641.4-68.9,102.3,32.8,184,34.2,256.7,28,312.1-26.7,235.3-447.6,795.1-124.2,401.6,232.1,686.9,127.6,877.3-3.9,214.4-148.2,316.8-363.1,341.9-406.2"/>
      <path class="st1" d="M-975.8,1229.7c1.1,2.6,172.4-162,457.6-282.2,182.7-77.3,390.7-137.1,651-42.7,103.9,37.7,185.6,42.1,256.4,35.1,309.3-30.4,228.2-492.1,794.8-161.3,404.1,233.8,687.5,134,876.6-5.2,213.2-156.8,313-388.4,338.9-433"/>
      <path class="st1" d="M-974.9,1243.1c.8,1.9,168.2-183.5,452.9-300.7,182.1-75.3,396.1-123.3,660.6-16.6,105.4,42.5,187.2,49.9,256.1,42.2,306.5-34.1,220.4-535.3,794.5-198.5,406,236.6,687.7,139.9,875.9-6.4,211.7-165.9,309.1-413.8,335.9-459.8"/>
      <path class="st1" d="M-974,1256.6c.5,1.3,164-204.9,448.2-319.2,181.5-73.2,401.5-109.4,670.1,9.6,107,47.4,188.7,57.8,255.8,49.4,303.6-38,212.5-578.4,794.2-235.7,407.9,239.3,688.3,146.4,875.2-7.6,210.6-174.4,305.3-439.2,332.9-486.6"/>
      <path class="st1" d="M-973.1,1270.1c.3.6,159.8-226.3,443.6-337.7,181-71.1,407-95.6,679.7,35.8,108.6,52.3,190.3,65.6,255.6,56.5,300.7-41.9,204.7-621.6,793.9-272.9,409.9,242,688.9,152.8,874.5-8.8,209.5-182.9,301.5-464.6,329.9-513.3"/>
      <path class="st1" d="M-972.2,1283.6S-555.6,620,156,989.3c627.8,325.8,325-676.7,1048.9-246.4,877.2,521.4,1145.7-455.6,1200.7-550.1"/>
    </g>
  </g>
</svg>