<svg width="22" height="40" viewBox="0 0 22 40" fill="none" xmlns="http://www.w3.org/2000/svg">
<g clip-path="url(#clip0_26_36)">
<path d="M19.196 39.507H2.80401C1.52427 39.507 0.489075 38.4639 0.489075 37.1744V2.82532C0.489075 1.5358 1.52427 0.492676 2.80401 0.492676H19.196C20.4757 0.492676 21.5109 1.5358 21.5109 2.82532V37.1662C21.5109 38.4557 20.4757 39.4988 19.196 39.4988V39.507Z" stroke="black" stroke-width="1.2" stroke-miterlimit="10"/>
<path d="M21.5109 5.69189H0.864014" stroke="black" stroke-width="1.2" stroke-miterlimit="10"/>
<path d="M21.5109 30.8994H0.864014" stroke="black" stroke-width="1.2" stroke-miterlimit="10"/>
<path d="M11.0041 36.8213C12.1115 36.8213 13.0093 35.9167 13.0093 34.8008C13.0093 33.6849 12.1115 32.7803 11.0041 32.7803C9.89665 32.7803 8.9989 33.6849 8.9989 34.8008C8.9989 35.9167 9.89665 36.8213 11.0041 36.8213Z" stroke="black" stroke-width="1.2" stroke-miterlimit="10"/>
<path d="M7.79254 3.09668H10.7596" stroke="black" stroke-width="1.2" stroke-linecap="round" stroke-linejoin="round"/>
<path d="M12.2593 3.09668H13.3842" stroke="black" stroke-width="1.2" stroke-linecap="round" stroke-linejoin="round"/>
</g>
<defs>
<clipPath id="clip0_26_36">
<rect width="22" height="40" fill="white"/>
</clipPath>
</defs>
</svg>
