<svg width="30" height="25" viewBox="0 0 30 25" fill="none" xmlns="http://www.w3.org/2000/svg">
<g clip-path="url(#clip0_26_28)">
<path d="M29.8861 0.202458C29.7797 0.0503798 29.6051 -0.0172106 29.438 0.0081358C29.4 0.0081358 29.362 0.0165846 29.3316 0.0334822L0.372152 8.78644C0.159494 8.85403 0.00759494 9.06525 0 9.31027C0 9.55528 0.136709 9.77495 0.341772 9.85099L10.9367 13.7121L9.98734 22.1524C9.96456 22.3721 10.0633 22.5918 10.238 22.7016C10.3139 22.7523 10.4051 22.7777 10.4886 22.7777C10.5949 22.7777 10.7013 22.7354 10.7924 22.6678L14.6734 19.3643L18.076 24.7716C18.1671 24.9236 18.319 25.0081 18.4861 25.0081H18.5165C18.6911 24.9912 18.8506 24.8814 18.9266 24.704L29.9468 0.802323C30.038 0.608001 30.0152 0.371434 29.8937 0.202458H29.8861ZM26.4228 2.06119L11.4152 12.7151L2.23291 9.36941L26.4228 2.06119ZM11.1342 20.9696L11.8253 14.8273L14.1038 18.4434L11.1418 20.9696H11.1342ZM18.4177 23.3691L12.1975 13.4924L28.2304 2.09499L18.4177 23.3691Z" fill="black"/>
</g>
<defs>
<clipPath id="clip0_26_28">
<rect width="30" height="25" fill="white"/>
</clipPath>
</defs>
</svg>
