<svg width="29" height="29" viewBox="0 0 29 29" fill="none" xmlns="http://www.w3.org/2000/svg">
<g clip-path="url(#clip0_26_31)">
<path d="M14.5 12.5689C16.3705 12.5689 17.8836 11.0482 17.8836 9.18534C17.8836 7.32247 16.3629 5.80176 14.5 5.80176C12.6371 5.80176 11.1164 7.32247 11.1164 9.18534C11.1164 11.0482 12.6371 12.5689 14.5 12.5689ZM14.5 6.76741C15.8306 6.76741 16.9179 7.85472 16.9179 9.18534C16.9179 10.516 15.8382 11.6033 14.5 11.6033C13.1618 11.6033 12.082 10.5236 12.082 9.18534C12.082 7.84712 13.1618 6.76741 14.5 6.76741Z" fill="black"/>
<path d="M14.4164 26.468L21.8298 15.7546C24.6127 12.044 24.2098 5.95359 20.9706 2.71447C19.2218 0.965653 16.8951 0 14.4164 0C11.9376 0 9.61091 0.965653 7.86209 2.71447C4.62297 5.95359 4.21998 12.0517 6.98768 15.7394L14.4164 26.4604V26.468ZM8.54641 3.39879C10.1127 1.83246 12.1961 0.965653 14.4164 0.965653C16.6366 0.965653 18.72 1.83246 20.2863 3.39879C23.2137 6.32617 23.5711 11.8235 21.0467 15.1919L14.4164 24.7724L7.77845 15.1843C5.26167 11.8311 5.62664 6.32617 8.54641 3.4064V3.39879Z" fill="black"/>
<path d="M20.3547 20.7884C20.0886 20.7579 19.8453 20.948 19.8149 21.2142C19.7845 21.4803 19.9745 21.716 20.2407 21.754C25.3198 22.3471 28.0267 23.959 28.0267 24.8943C28.0267 26.2097 22.8791 28.0345 14.4924 28.0345C6.10564 28.0345 0.965627 26.2021 0.965627 24.8943C0.965627 23.959 3.6725 22.3471 8.75168 21.754C9.0178 21.7236 9.20789 21.4803 9.17748 21.2142C9.14706 20.948 8.90375 20.7579 8.63762 20.7884C3.55084 21.389 -0.00762939 23.077 -0.00762939 24.8943C-0.00762939 26.9396 4.97271 29.0002 14.4924 29.0002C24.012 29.0002 28.9924 26.932 28.9924 24.8943C28.9924 23.077 25.4415 21.389 20.3471 20.7884H20.3547Z" fill="black"/>
</g>
<defs>
<clipPath id="clip0_26_31">
<rect width="29" height="29" fill="white"/>
</clipPath>
</defs>
</svg>
