<svg width="65" height="54" viewBox="0 0 65 54" fill="none" xmlns="http://www.w3.org/2000/svg">
<g clip-path="url(#clip0_3_7)">
<path d="M18.5049 8.86081C18.5049 6.5794 18.9899 5.76462 20.1925 5.76462C21.3951 5.76462 21.6667 6.86458 21.6667 8.86081C21.6667 15.2161 29.4061 20.6141 40.8699 20.6141C47.271 8.41268 52.4112 0 59.5882 0C62.5366 0 65 1.99623 65 5.54055C65 13.1588 56.2131 21.877 43.0424 23.4251C40.5789 28.599 37.8439 33.3248 37.8439 33.3248C42.9842 36.645 45.9326 41.2282 45.9326 46.4836C45.9326 47.665 45.0791 48.7039 44.1092 48.7039C42.8484 48.7039 42.2859 47.8076 42.2859 46.8502C42.2859 45.8929 42.5768 44.854 42.5768 44.0392C42.5768 41.0856 40.4044 38.0505 36.4473 35.6877C29.7553 46.8502 22.2292 54 12.1814 54C4.92688 54 0.0193939 49.7835 0.0193939 42.8374C0.0193939 35.8914 6.9054 28.5787 18.7959 28.5787C25.197 28.5787 30.7639 29.7601 35.1089 31.8378C35.749 30.7989 37.5724 27.5602 39.3957 23.6288C27.2918 23.6288 18.5049 16.6828 18.5049 8.86081ZM2.94837 42.8578C2.94837 48.0317 6.11011 51.0668 12.162 51.0668C20.3864 51.0668 27.8544 43.6726 33.6929 34.221C29.7553 32.5304 24.615 31.41 18.5049 31.41C8.03043 31.41 2.94837 37.7654 2.94837 42.8578ZM59.5106 3.03508C54.7195 3.03508 50.2193 10.1237 44.8075 20.1049C55.1462 18.1086 61.8383 11.3866 61.8383 6.15164C61.8383 4.23689 60.9848 3.05545 59.5106 3.05545V3.03508Z" fill="black"/>
<ellipse cx="62.3361" cy="44.6326" rx="2.66393" ry="2.7551" fill="black"/>
</g>
<defs>
<clipPath id="clip0_3_7">
<rect width="65" height="54" fill="white"/>
</clipPath>
</defs>
</svg>
